<svg width="52" height="52" viewBox="0 0 52 52" fill="none" xmlns="http://www.w3.org/2000/svg">
<path d="M14.3 37.7L32.5 32.5L37.7 14.3L19.5 19.5L14.3 37.7ZM26 29.9C24.9167 29.9 23.9958 29.5208 23.2375 28.7625C22.4792 28.0042 22.1 27.0833 22.1 26C22.1 24.9167 22.4792 23.9958 23.2375 23.2375C23.9958 22.4792 24.9167 22.1 26 22.1C27.0833 22.1 28.0042 22.4792 28.7625 23.2375C29.5208 23.9958 29.9 24.9167 29.9 26C29.9 27.0833 29.5208 28.0042 28.7625 28.7625C28.0042 29.5208 27.0833 29.9 26 29.9ZM26 52C22.4033 52 19.0233 51.3175 15.86 49.9525C12.6967 48.5875 9.945 46.735 7.605 44.395C5.265 42.055 3.4125 39.3033 2.0475 36.14C0.6825 32.9767 0 29.5967 0 26C0 22.4033 0.6825 19.0233 2.0475 15.86C3.4125 12.6967 5.265 9.945 7.605 7.605C9.945 5.265 12.6967 3.4125 15.86 2.0475C19.0233 0.6825 22.4033 0 26 0C29.5967 0 32.9767 0.6825 36.14 2.0475C39.3033 3.4125 42.055 5.265 44.395 7.605C46.735 9.945 48.5875 12.6967 49.9525 15.86C51.3175 19.0233 52 22.4033 52 26C52 29.5967 51.3175 32.9767 49.9525 36.14C48.5875 39.3033 46.735 42.055 44.395 44.395C42.055 46.735 39.3033 48.5875 36.14 49.9525C32.9767 51.3175 29.5967 52 26 52ZM26 46.8C31.7633 46.8 36.6708 44.7742 40.7225 40.7225C44.7742 36.6708 46.8 31.7633 46.8 26C46.8 20.2367 44.7742 15.3292 40.7225 11.2775C36.6708 7.22583 31.7633 5.2 26 5.2C20.2367 5.2 15.3292 7.22583 11.2775 11.2775C7.22583 15.3292 5.2 20.2367 5.2 26C5.2 31.7633 7.22583 36.6708 11.2775 40.7225C15.3292 44.7742 20.2367 46.8 26 46.8Z" fill="black"/>
</svg>
