<svg width="52" height="59" viewBox="0 0 52 59" fill="none" xmlns="http://www.w3.org/2000/svg">
<path d="M0 36.0556C0 30.3194 1.35417 25.2116 4.0625 20.7319C6.77083 16.2523 9.75 12.4829 13 9.42361C16.25 6.36435 19.2292 4.02893 21.9375 2.41736L26 0V10.8167C26 12.838 26.6771 14.4359 28.0312 15.6104C29.3854 16.785 30.9021 17.3722 32.5812 17.3722C33.5021 17.3722 34.3823 17.181 35.2219 16.7986C36.0615 16.4162 36.8333 15.788 37.5375 14.9139L39 13.1111C42.9 15.4056 46.0417 18.5877 48.425 22.6576C50.8083 26.7275 52 31.1935 52 36.0556C52 40.863 50.8354 45.247 48.5062 49.2076C46.1771 53.1683 43.1167 56.2958 39.325 58.5903C40.2458 57.2792 40.9635 55.8451 41.4781 54.2882C41.9927 52.7313 42.25 51.0787 42.25 49.3306C42.25 47.1454 41.8438 45.0831 41.0312 43.1437C40.2188 41.2044 39.0542 39.4699 37.5375 37.9403L26 26.55L14.5437 37.9403C12.9729 39.5245 11.7812 41.2727 10.9688 43.1847C10.1562 45.0968 9.75 47.1454 9.75 49.3306C9.75 51.0787 10.0073 52.7313 10.5219 54.2882C11.0365 55.8451 11.7542 57.2792 12.675 58.5903C8.88333 56.2958 5.82292 53.1683 3.49375 49.2076C1.16458 45.247 0 40.863 0 36.0556ZM26 35.7278L32.9062 42.5292C33.8271 43.4579 34.5312 44.4958 35.0187 45.6431C35.5062 46.7903 35.75 48.0194 35.75 49.3306C35.75 52.0074 34.8021 54.2882 32.9062 56.1729C31.0104 58.0576 28.7083 59 26 59C23.2917 59 20.9896 58.0576 19.0938 56.1729C17.1979 54.2882 16.25 52.0074 16.25 49.3306C16.25 48.0741 16.4937 46.8586 16.9812 45.684C17.4688 44.5095 18.1729 43.4579 19.0938 42.5292L26 35.7278Z" fill="black"/>
</svg>
