<svg width="52" height="47" viewBox="0 0 52 47" fill="none" xmlns="http://www.w3.org/2000/svg">
<path d="M26 47L22.23 43.6703C17.8533 39.7856 14.235 36.4346 11.375 33.6172C8.515 30.7997 6.24 28.2704 4.55 26.0293C2.86 23.7881 1.67917 21.7284 1.0075 19.8501C0.335833 17.9718 0 16.0509 0 14.0872C0 10.0745 1.365 6.72343 4.095 4.03406C6.825 1.34469 10.2267 0 14.3 0C16.5533 0 18.6983 0.469573 20.735 1.40872C22.7717 2.34787 24.5267 3.67121 26 5.37875C27.4733 3.67121 29.2283 2.34787 31.265 1.40872C33.3017 0.469573 35.4467 0 37.7 0C41.7733 0 45.175 1.34469 47.905 4.03406C50.635 6.72343 52 10.0745 52 14.0872C52 16.0509 51.6642 17.9718 50.9925 19.8501C50.3208 21.7284 49.14 23.7881 47.45 26.0293C45.76 28.2704 43.485 30.7997 40.625 33.6172C37.765 36.4346 34.1467 39.7856 29.77 43.6703L26 47Z" fill="black"/>
</svg>
