<svg width="52" height="46" viewBox="0 0 52 46" fill="none" xmlns="http://www.w3.org/2000/svg">
<path d="M26 46C24.1091 44.506 22.0606 43.3462 19.8545 42.5205C17.6485 41.6949 15.3636 41.2821 13 41.2821C11.3455 41.2821 9.72045 41.4983 8.125 41.9308C6.52955 42.3632 5.00303 42.9726 3.54545 43.759C2.71818 44.1915 1.92045 44.1718 1.15227 43.7C0.384091 43.2282 0 42.5402 0 41.6359V13.2103C0 12.7778 0.108333 12.365 0.325 11.9718C0.541667 11.5786 0.866667 11.2838 1.3 11.0872C3.11212 10.1436 5.00303 9.4359 6.97273 8.9641C8.94242 8.49231 10.9515 8.25641 13 8.25641C15.2848 8.25641 17.5205 8.55128 19.7068 9.14103C21.8932 9.73077 23.9909 10.6154 26 11.7949V40.3385C28.0091 39.0803 30.1167 38.1368 32.3227 37.5077C34.5288 36.8786 36.7545 36.5641 39 36.5641C40.4182 36.5641 41.8068 36.6821 43.1659 36.9179C44.525 37.1538 45.8939 37.5077 47.2727 37.9795V9.67179C47.8636 9.86838 48.4447 10.0748 49.0159 10.291C49.5871 10.5073 50.1485 10.7726 50.7 11.0872C51.1333 11.2838 51.4583 11.5786 51.675 11.9718C51.8917 12.365 52 12.7778 52 13.2103V41.6359C52 42.5402 51.6159 43.2282 50.8477 43.7C50.0795 44.1718 49.2818 44.1915 48.4545 43.759C46.997 42.9726 45.4705 42.3632 43.875 41.9308C42.2795 41.4983 40.6545 41.2821 39 41.2821C36.6364 41.2821 34.3515 41.6949 32.1455 42.5205C29.9394 43.3462 27.8909 44.506 26 46ZM30.7273 34.2051V11.7949L42.5455 0V23.5897L30.7273 34.2051Z" fill="black"/>
</svg>
