<svg width="52" height="52" viewBox="0 0 52 52" fill="none" xmlns="http://www.w3.org/2000/svg">
<path d="M17.3308 34.6669C16.5011 34.6688 15.6916 34.4116 15.015 33.9314C14.3384 33.4512 13.8284 32.7719 13.5563 31.988L12.033 27.3062C11.6737 26.2138 11.0622 25.2215 10.2478 24.4096C9.43462 23.5929 8.44226 22.977 7.3495 22.6109L2.7257 21.1067C2.13549 20.9086 1.5997 20.5754 1.16103 20.1336C0.722354 19.6918 0.392916 19.1536 0.198961 18.562C0.00500636 17.9704 -0.0481056 17.3416 0.0438567 16.7258C0.135819 16.1101 0.370314 15.5243 0.72866 15.0151C1.20625 14.3334 1.88413 13.8172 2.66985 13.5399L7.36683 12.0185C8.42107 11.6463 9.3775 11.0404 10.1645 10.2464C10.9516 9.45227 11.5489 8.49046 11.9117 7.4329L13.4484 2.70676C13.7181 1.90367 14.238 1.20842 14.9313 0.721169C15.6105 0.251556 16.4165 0 17.2422 0C18.0679 0 18.874 0.251556 19.5532 0.721169C20.2272 1.19686 20.7356 1.869 21.0091 2.64706L22.5401 7.34624C22.9027 8.4355 23.5146 9.42507 24.327 10.2362C25.1394 11.0473 26.1299 11.6576 27.2197 12.0185L31.8512 13.5206C32.6909 13.7883 33.4207 14.3199 33.9349 15.0363C34.4121 15.71 34.6683 16.5151 34.6683 17.3407C34.6683 18.1662 34.4121 18.9713 33.9349 19.645C33.4592 20.319 32.7871 20.8294 32.0091 21.1067L27.3044 22.6359C26.218 22.9962 25.2313 23.6064 24.4235 24.4173C23.6127 25.232 22.9984 26.2238 22.6344 27.3139L21.1323 31.9399C20.8487 32.7357 20.3336 33.4285 19.6533 33.9293C18.9754 34.4108 18.1628 34.6708 17.3308 34.6669ZM39.4889 52C38.7954 52.0026 38.1184 51.7888 37.5523 51.3883C36.9861 50.9879 36.5591 50.4207 36.3306 49.7659L35.2753 46.5381C35.06 45.8748 34.6911 45.2717 34.1987 44.7779C33.7035 44.2846 33.1012 43.9123 32.4386 43.6898L29.2553 42.6594C28.5803 42.4293 27.9957 41.991 27.5856 41.4076C27.2842 40.9857 27.0853 40.4994 27.0047 39.9872C26.924 39.475 26.9639 38.9511 27.1211 38.457C27.2783 37.9629 27.5485 37.5123 27.9103 37.1409C28.2721 36.7695 28.7154 36.4875 29.2052 36.3174L32.4424 35.262C33.0902 35.0337 33.6769 34.6597 34.1574 34.1689C34.6378 33.6781 34.9992 33.0835 35.2136 32.431L36.2439 29.2533C36.4077 28.7561 36.6861 28.3044 37.0567 27.9348C37.4273 27.5652 37.8797 27.288 38.3773 27.1256C38.8749 26.9632 39.4037 26.9203 39.921 27.0001C40.4383 27.08 40.9295 27.2805 41.3549 27.5854C41.923 27.9841 42.3506 28.5522 42.5759 29.207L43.6274 32.4348C43.8492 33.0938 44.221 33.6922 44.7136 34.1828C45.2063 34.6735 45.8061 35.0429 46.466 35.262L49.6531 36.302C50.3248 36.5105 50.9134 36.9259 51.3348 37.489C51.7563 38.052 51.9889 38.7339 51.9996 39.4371C52.0103 40.1404 51.7984 40.829 51.3943 41.4046C50.9902 41.9802 50.4145 42.4133 49.7494 42.6421L46.5276 43.6936C45.8669 43.9105 45.2665 44.28 44.7751 44.7721C44.2838 45.2667 43.9128 45.8676 43.6909 46.5285L42.6549 49.7062C42.4232 50.3799 41.9852 50.9635 41.4031 51.3741C40.8449 51.7752 40.1762 51.9938 39.4889 52Z" fill="black"/>
</svg>
