<svg width="17" height="17" viewBox="0 0 17 17" fill="none" xmlns="http://www.w3.org/2000/svg">
<path d="M8.4575 13.6C8.755 13.6 9.00646 13.4973 9.21187 13.2919C9.41729 13.0865 9.52 12.835 9.52 12.5375C9.52 12.24 9.41729 11.9885 9.21187 11.7831C9.00646 11.5777 8.755 11.475 8.4575 11.475C8.16 11.475 7.90854 11.5777 7.70312 11.7831C7.49771 11.9885 7.395 12.24 7.395 12.5375C7.395 12.835 7.49771 13.0865 7.70312 13.2919C7.90854 13.4973 8.16 13.6 8.4575 13.6ZM7.6925 10.3275H9.265C9.265 9.86 9.31812 9.49167 9.42438 9.2225C9.53063 8.95333 9.83167 8.585 10.3275 8.1175C10.6958 7.74917 10.9862 7.39854 11.1988 7.06563C11.4113 6.73271 11.5175 6.3325 11.5175 5.865C11.5175 5.07167 11.2271 4.4625 10.6462 4.0375C10.0654 3.6125 9.37833 3.4 8.585 3.4C7.7775 3.4 7.12229 3.6125 6.61938 4.0375C6.11646 4.4625 5.76583 4.9725 5.5675 5.5675L6.97 6.12C7.04083 5.865 7.20021 5.58875 7.44812 5.29125C7.69604 4.99375 8.075 4.845 8.585 4.845C9.03833 4.845 9.37833 4.96896 9.605 5.21688C9.83167 5.46479 9.945 5.7375 9.945 6.035C9.945 6.31833 9.86 6.58396 9.69 6.83187C9.52 7.07979 9.3075 7.31 9.0525 7.5225C8.42917 8.075 8.04667 8.49292 7.905 8.77625C7.76333 9.05958 7.6925 9.57667 7.6925 10.3275ZM8.5 17C7.32417 17 6.21917 16.7769 5.185 16.3306C4.15083 15.8844 3.25125 15.2788 2.48625 14.5138C1.72125 13.7487 1.11563 12.8492 0.669375 11.815C0.223125 10.7808 0 9.67583 0 8.5C0 7.32417 0.223125 6.21917 0.669375 5.185C1.11563 4.15083 1.72125 3.25125 2.48625 2.48625C3.25125 1.72125 4.15083 1.11563 5.185 0.669375C6.21917 0.223125 7.32417 0 8.5 0C9.67583 0 10.7808 0.223125 11.815 0.669375C12.8492 1.11563 13.7487 1.72125 14.5138 2.48625C15.2788 3.25125 15.8844 4.15083 16.3306 5.185C16.7769 6.21917 17 7.32417 17 8.5C17 9.67583 16.7769 10.7808 16.3306 11.815C15.8844 12.8492 15.2788 13.7487 14.5138 14.5138C13.7487 15.2788 12.8492 15.8844 11.815 16.3306C10.7808 16.7769 9.67583 17 8.5 17ZM8.5 15.3C10.3983 15.3 12.0063 14.6413 13.3238 13.3238C14.6413 12.0063 15.3 10.3983 15.3 8.5C15.3 6.60167 14.6413 4.99375 13.3238 3.67625C12.0063 2.35875 10.3983 1.7 8.5 1.7C6.60167 1.7 4.99375 2.35875 3.67625 3.67625C2.35875 4.99375 1.7 6.60167 1.7 8.5C1.7 10.3983 2.35875 12.0063 3.67625 13.3238C4.99375 14.6413 6.60167 15.3 8.5 15.3Z" fill="#010101"/>
</svg>
